/tmp/.mount_krita-RSLrpf/usr/bin/ffmpeg -hide_banner -y -y -r 10 -start_number 0 -start_number_range 1 -i /home/onetyten/Desktop/Javascript/myportfolio/src/assets/Skill icons/frame%04d.png -i /home/onetyten/Desktop/Javascript/myportfolio/src/assets/Skill icons/KritaTempPalettegen_%06d.png -lavfi [0:v][1:v]paletteuse=dither=sierra2_4a:diff_mode=none -f gif -loop 0 -gifflags +transdiff /home/onetyten/Desktop/Javascript/myportfolio/src/assets/Skill icons/Fluid anim.gif
=====================================================
Input #0, image2, from '/home/onetyten/Desktop/Javascript/myportfolio/src/assets/Skill icons/frame%04d.png':
  Duration: 00:00:00.44, start: 0.000000, bitrate: N/A
  Stream #0:0: Video: png, rgba(pc), 112x54 [SAR 11811:11811 DAR 56:27], 25 fps, 25 tbr, 25 tbn, 25 tbc
Input #1, image2, from '/home/onetyten/Desktop/Javascript/myportfolio/src/assets/Skill icons/KritaTempPalettegen_%06d.png':
  Duration: 00:00:00.04, start: 0.000000, bitrate: N/A
  Stream #1:0: Video: png, rgba(pc), 16x16 [SAR 1:1 DAR 1:1], 25 fps, 25 tbr, 25 tbn, 25 tbc
Stream mapping:
  Stream #0:0 (png) -> paletteuse:default
  Stream #1:0 (png) -> paletteuse:palette
  paletteuse -> Stream #0:0 (gif)
Press [q] to stop, [?] for help
[image2 @ 0x59ddd7a30a40] Thread message queue blocking; consider raising the thread_queue_size option (current value: 8)
Output #0, gif, to '/home/onetyten/Desktop/Javascript/myportfolio/src/assets/Skill icons/Fluid anim.gif':
  Metadata:
    encoder         : Lavf58.76.100
  Stream #0:0: Video: gif, pal8(pc, gbr/unknown/unknown, progressive), 112x54 [SAR 1:1 DAR 56:27], q=2-31, 200 kb/s, 10 fps, 100 tbn (default)
    Metadata:
      encoder         : Lavc58.134.100 gif
frame=    1 fps=0.0 q=-0.0 size=       0kB time=00:00:00.01 bitrate=   0.0kbits/s speed=0.924x    frame=   11 fps=0.0 q=-0.0 Lsize=       3kB time=00:00:01.01 bitrate=  23.9kbits/s speed=56.8x    
video:3kB audio:0kB subtitle:0kB other streams:0kB global headers:0kB muxing overhead: 0.667111%
